<svg version="1.1" viewBox="0.0 0.0 960.0 960.0" fill="none" stroke="none" stroke-linecap="square" stroke-miterlimit="10" xmlns:xlink="http://www.w3.org/1999/xlink" xmlns="http://www.w3.org/2000/svg"><clipPath id="p.0"><path d="m0 0l960.0 0l0 960.0l-960.0 0l0 -960.0z" clip-rule="nonzero"/></clipPath><g clip-path="url(#p.0)"><path fill="#000000" fill-opacity="0.0" d="m0 0l960.0 0l0 960.0l-960.0 0z" fill-rule="evenodd"/><path fill="#ffffff" d="m0 0l960.0 0l0 960.0l-960.0 0z" fill-rule="evenodd"/><path fill="#ffffff" d="m329.2126 383.53024l0 0c0 -83.27759 67.50983 -150.7874 150.78741 -150.7874l0 0c39.991333 0 78.344666 15.88649 106.6228 44.164597c28.278137 28.278137 44.16461 66.6315 44.16461 106.6228l0 0c0 83.27759 -67.50983 150.78738 -150.78741 150.78738l0 0c-83.27759 0 -150.78741 -67.509796 -150.78741 -150.78738z" fill-rule="evenodd"/><path stroke="#011e2c" stroke-width="24.0" stroke-linejoin="round" stroke-linecap="butt" d="m329.2126 383.53024l0 0c0 -83.27759 67.50983 -150.7874 150.78741 -150.7874l0 0c39.991333 0 78.344666 15.88649 106.6228 44.164597c28.278137 28.278137 44.16461 66.6315 44.16461 106.6228l0 0c0 83.27759 -67.50983 150.78738 -150.78741 150.78738l0 0c-83.27759 0 -150.78741 -67.509796 -150.78741 -150.78738z" fill-rule="evenodd"/><path fill="#ffffff" d="m436.0 336.0l0 0c0 -24.300537 19.699463 -44.0 44.0 -44.0l0 0c11.669525 0 22.861084 4.6357117 31.112701 12.887299c8.251617 8.251617 12.887299 19.443176 12.887299 31.112701l0 0c0 24.300537 -19.699463 44.0 -44.0 44.0l0 0c-24.300537 0 -44.0 -19.699463 -44.0 -44.0z" fill-rule="evenodd"/><path stroke="#011e2c" stroke-width="24.0" stroke-linejoin="round" stroke-linecap="butt" d="m436.0 336.0l0 0c0 -24.300537 19.699463 -44.0 44.0 -44.0l0 0c11.669525 0 22.861084 4.6357117 31.112701 12.887299c8.251617 8.251617 12.887299 19.443176 12.887299 31.112701l0 0c0 24.300537 -19.699463 44.0 -44.0 44.0l0 0c-24.300537 0 -44.0 -19.699463 -44.0 -44.0z" fill-rule="evenodd"/><path fill="#000000" fill-opacity="0.0" d="m436.29922 342.3596l-100.06302 99.08661" fill-rule="evenodd"/><path stroke="#011e2c" stroke-width="24.0" stroke-linejoin="round" stroke-linecap="butt" d="m436.29922 342.3596l-100.06302 99.08661" fill-rule="evenodd"/><path fill="#000000" fill-opacity="0.0" d="m623.0866 441.4462l-99.08661 -99.08661" fill-rule="evenodd"/><path stroke="#011e2c" stroke-width="24.0" stroke-linejoin="round" stroke-linecap="butt" d="m623.0866 441.4462l-99.08661 -99.08661" fill-rule="evenodd"/><path fill="#000000" fill-opacity="0.0" d="m591.64307 479.0866l-99.08664 -99.08661" fill-rule="evenodd"/><path stroke="#011e2c" stroke-width="24.0" stroke-linejoin="round" stroke-linecap="butt" d="m591.64307 479.0866l-99.08664 -99.08661" fill-rule="evenodd"/><path fill="#000000" fill-opacity="0.0" d="m463.08923 380.0l-99.08661 99.08661" fill-rule="evenodd"/><path stroke="#011e2c" stroke-width="24.0" stroke-linejoin="round" stroke-linecap="butt" d="m463.08923 380.0l-99.08661 99.08661" fill-rule="evenodd"/><path fill="#000000" fill-opacity="0.0" d="m505.60104 405.41537l-99.08661 99.08661" fill-rule="evenodd"/><path stroke="#011e2c" stroke-width="24.0" stroke-linejoin="round" stroke-linecap="butt" d="m505.60104 405.41537l-99.08661 99.08661" fill-rule="evenodd"/><path fill="#000000" fill-opacity="0.0" d="m628.3498 409.18338l0 0c-6.9457397 39.360657 -29.24292 74.349976 -61.98651 97.27078c-32.74353 22.920776 -73.25125 31.895447 -112.61188 24.949707l26.188965 -148.40945z" fill-rule="evenodd"/><path fill="#000000" fill-opacity="0.0" d="m628.3498 409.18338l0 0c-6.9457397 39.360657 -29.24292 74.349976 -61.98651 97.27078c-32.74353 22.920776 -73.25125 31.895447 -112.61188 24.949707" fill-rule="evenodd"/><path stroke="#9e3ffd" stroke-width="24.0" stroke-linejoin="round" stroke-linecap="butt" d="m628.3498 409.18338l0 0c-6.9457397 39.360657 -29.24292 74.349976 -61.98651 97.27078c-32.74353 22.920776 -73.25125 31.895447 -112.61188 24.949707" fill-rule="evenodd"/><path fill="#000000" fill-opacity="0.0" d="m542.55444 435.84088l-99.08664 99.08661" fill-rule="evenodd"/><path stroke="#011e2c" stroke-width="24.0" stroke-linejoin="round" stroke-linecap="butt" d="m542.55444 435.84088l-99.08664 99.08661" fill-rule="evenodd"/><path fill="#000000" fill-opacity="0.0" d="m587.2819 277.19452l0 0c28.062866 28.455414 43.672424 66.89331 43.394836 106.85776c-0.27764893 39.964447 -16.419678 78.18176 -44.875122 106.2446l-105.811035 -107.29135z" fill-rule="evenodd"/><path fill="#000000" fill-opacity="0.0" d="m587.2819 277.19452l0 0c28.062866 28.455414 43.672424 66.89331 43.394836 106.85776c-0.27764893 39.964447 -16.419678 78.18176 -44.875122 106.2446" fill-rule="evenodd"/><path stroke="#011e2c" stroke-width="24.0" stroke-linejoin="round" stroke-linecap="butt" d="m587.2819 277.19452l0 0c28.062866 28.455414 43.672424 66.89331 43.394836 106.85776c-0.27764893 39.964447 -16.419678 78.18176 -44.875122 106.2446" fill-rule="evenodd"/><path fill="#000000" fill-opacity="0.0" d="m0 548.1837l960.0 0l0 182.80316l-960.0 0z" fill-rule="evenodd"/><path fill="#000000" d="m214.88477 598.4712l0 112.3125l-27.359375 0l0 -67.359375l-25.125 67.359375l-22.078125 0l-25.28125 -67.515625l0 67.515625l-27.359375 0l0 -112.3125l32.3125 0l31.53125 77.75l31.1875 -77.75l32.171875 0zm72.80194 113.4375q-15.84375 0 -29.046875 -7.359375q-13.20311 -7.359375 -20.968735 -20.5625q-7.75 -13.203125 -7.75 -29.6875q0 -16.46875 7.75 -29.59375q7.765625 -13.125 20.968735 -20.484375q13.203125 -7.359375 29.046875 -7.359375q15.828125 0 29.03125 7.359375q13.203125 7.359375 20.796875 20.484375q7.609375 13.125 7.609375 29.59375q0 16.484375 -7.6875 29.6875q-7.671875 13.203125 -20.796875 20.5625q-13.125 7.359375 -28.953125 7.359375zm0 -24.96875q13.4375 0 21.515625 -8.953125q8.078125 -8.96875 8.078125 -23.6875q0 -14.875 -8.078125 -23.75q-8.078125 -8.890625 -21.515625 -8.890625q-13.609375 0 -21.6875 8.8125q-8.078125 8.796875 -8.078125 23.828125q0 14.890625 8.078125 23.765625q8.078125 8.875 21.6875 8.875zm173.11945 23.84375l-27.359375 0l-45.765625 -69.28125l0 69.28125l-27.359375 0l0 -112.3125l27.359375 0l45.765625 69.59375l0 -69.59375l27.359375 0l0 112.3125zm100.63257 -112.3125l0 21.90625l-29.765625 0l0 90.40625l-27.359375 0l0 -90.40625l-29.75 0l0 -21.90625l86.875 0zm83.68506 92.46875l-41.921875 0l-6.71875 19.84375l-28.640625 0l40.640625 -112.3125l31.671875 0l40.640625 112.3125l-28.953125 0l-6.71875 -19.84375zm-7.046875 -21.109375l-13.921875 -41.125l-13.75 41.125l27.671875 0z" fill-rule="nonzero"/><path fill="#9e3ffd" d="m796.96387 690.93994l-41.921875 0l-6.71875 19.84375l-28.640625 0l40.640625 -112.3125l31.671875 0l40.640625 112.3125l-28.953125 0l-6.71875 -19.84375zm-7.046875 -21.109375l-13.921875 -41.125l-13.75 41.125l27.671875 0zm82.40442 -71.359375l0 112.3125l-27.359375 0l0 -112.3125l27.359375 0z" fill-rule="nonzero"/></g></svg>